<?xml version="1.0" encoding="utf-8"?>
<!-- Generator: Adobe Illustrator 23.0.0, SVG Export Plug-In . SVG Version: 6.00 Build 0)  -->
<svg version="1.1" id="Layer_1" xmlns="http://www.w3.org/2000/svg" xmlns:xlink="http://www.w3.org/1999/xlink" x="0px" y="0px"
	 viewBox="0 0 425.2 425.2" style="enable-background:new 0 0 425.2 425.2;" xml:space="preserve">
<style type="text/css">
	.st0{fill:#231F20;}
	.st1{font-family:'PlexesBlackPro';}
	.st2{font-size:63.0614px;}
</style>
<g>
	<path class="st0" d="M212.6,0c-97.7,0-177,79.2-177,177s79.3,177,177,177s177-79.2,177-177S310.3,0,212.6,0z M212.6,341.7
		C121.7,341.7,48,268,48,177S121.7,12.3,212.6,12.3S377.2,86,377.2,177S303.5,341.7,212.6,341.7z"/>
	<g id="Guides">
	</g>
	<g>
		<g>
			<path d="M247.1,83H136.7v187h151.9V111.4L247.1,83z M249,91.4l27,18.5h-27L249,91.4L249,91.4z M282.6,264.2h-140V88.7h19.7v91.6
				c0,14.4,12,26,26.6,26s26.6-11.7,26.6-26v-71.6l-0.1-0.2c-0.8-4.2-5-12-14.7-12h-9.9c-8.8,0-14.8,5.8-14.8,14.4v69.4
				c0,8,4.7,12.5,12.8,12.5c8.2,0,12.8-4.6,12.8-12.5v-55.9h-5.9v55.9c0,4.8-2,6.7-6.9,6.7c-4.8,0-6.9-2-6.9-6.7V111
				c0-2.1,0.7-8.6,8.8-8.6h9.9c6.6,0,8.5,5.6,8.8,7.1v71c0,11.1-9.3,20.3-20.7,20.3s-20.7-9.1-20.7-20.3V88.7H243v27h39.6V264.2
				L282.6,264.2z"/>
		</g>
	</g>
</g>
<text transform="matrix(1 0 0 1 164.9892 417.4342)" class="st1 st2">COF</text>
</svg>
