<?xml version="1.0" encoding="utf-8"?>
<!-- Generator: Adobe Illustrator 23.0.0, SVG Export Plug-In . SVG Version: 6.00 Build 0)  -->
<svg version="1.1" id="Layer_1" xmlns="http://www.w3.org/2000/svg" xmlns:xlink="http://www.w3.org/1999/xlink" x="0px" y="0px"
	 viewBox="0 0 425.2 425.2" style="enable-background:new 0 0 425.2 425.2;" xml:space="preserve">
<style type="text/css">
	.st0{fill:#231F20;}
	.st1{font-family:'PlexesBlackPro';}
	.st2{font-size:63.0614px;}
</style>
<g>
	<path class="st0" d="M212.6,0c-97.7,0-177,79.2-177,177s79.3,177,177,177s177-79.2,177-177S310.3,0,212.6,0z M212.6,341.7
		C121.7,341.7,48,268,48,177S121.7,12.3,212.6,12.3S377.2,86,377.2,177S303.5,341.7,212.6,341.7z"/>
	<g id="Guides">
	</g>
	<g>
		<path d="M240.4,80.9h-101v183.3h146.3V125.5L240.4,80.9z M242.2,91.4l33,32.3h-33V91.4z M145.7,258.2V87.1H236v42.8h43.6v128.3
			L145.7,258.2L145.7,258.2z"/>
		<path d="M170.6,132.9h28.1c1.8,0,3.1-1.4,3.1-3.1s-1.4-3.1-3.1-3.1h-28.1c-1.8,0-3.1,1.4-3.1,3.1S168.9,132.9,170.6,132.9z"/>
		<path d="M170.6,157.4h15.6c1.8,0,3.1-1.4,3.1-3.1s-1.4-3.1-3.1-3.1h-15.6c-1.8,0-3.1,1.4-3.1,3.1S168.9,157.4,170.6,157.4z"/>
		<path d="M217.3,157.4h21.8c1.8,0,3.1-1.4,3.1-3.1s-1.4-3.1-3.1-3.1h-21.8c-1.8,0-3.1,1.4-3.1,3.1S215.6,157.4,217.3,157.4z"/>
		<path d="M199.6,152.1c-0.6,0.6-0.9,1.4-0.9,2.2s0.3,1.6,0.9,2.2c0.6,0.6,1.4,0.9,2.2,0.9s1.6-0.3,2.2-0.9c0.6-0.6,0.9-1.4,0.9-2.2
			s-0.4-1.6-0.9-2.2C202.8,151,200.7,151,199.6,152.1z"/>
		<path d="M254.6,157.4c0.8,0,1.6-0.4,2.2-0.9c0.6-0.6,0.9-1.4,0.9-2.2s-0.4-1.6-0.9-2.2c-1.2-1.1-3.2-1.1-4.5,0
			c-0.6,0.6-0.9,1.4-0.9,2.2s0.4,1.6,0.9,2.2C253,157,253.8,157.4,254.6,157.4z"/>
		<path d="M208,175.7h-21.8c-1.8,0-3.1,1.4-3.1,3.1c0,1.7,1.4,3.1,3.1,3.1H208c1.8,0,3.1-1.4,3.1-3.1
			C211.1,177.1,209.7,175.7,208,175.7z"/>
		<path d="M170.6,181.8c0.8,0,1.6-0.4,2.2-0.9c0.6-0.6,0.9-1.4,0.9-2.2s-0.3-1.6-0.9-2.2c-1.2-1.1-3.2-1.1-4.5,0
			c-0.6,0.6-0.9,1.4-0.9,2.2s0.4,1.6,0.9,2.2C168.9,181.5,169.8,181.8,170.6,181.8z"/>
		<path d="M180.4,203.7c-6.8,3.5-9.1,10.2-9.9,17.1c-1.3-1.1-2.6-2.2-3.9-3.2c-3.1-2.5-7.5,1.8-4.4,4.3c2.9,2.4,5.8,4.8,8.8,7.2
			c2,1.6,5.2,0.6,5.3-2.2c0.2-6.6,0.5-14.5,7.3-17.9C187.1,207.2,183.9,201.9,180.4,203.7z"/>
		<path d="M201.1,215.9c-4.3,1-9.2,6.4-12.3,0.4c-1.8-3.5-7.2-0.4-5.4,3.1c1.6,3.2,4.7,5.4,8.3,5.9c1.8,0.2,3.5,0,5.3-0.7
			c1.2-0.5,6.1-4,7.1-2.2c2,3.4,7.3,0.4,5.4-3.1C207.8,216.3,204.4,215.2,201.1,215.9z"/>
		<path d="M264.8,186.4c-0.7-0.3-1-0.8-1.2-1.1c-0.1-0.3-0.3-0.9,0.1-1.6c1.5-3.2,0.9-6.7-1.6-9.2c-2.5-2.4-6.1-3.1-9.4-1.6
			c-0.7,0.4-1.3,0.1-1.6,0.1c-0.3-0.1-0.9-0.4-1.1-1.1c-1.2-3.2-4.2-5.4-7.7-5.4s-6.6,2.1-7.7,5.4c-0.3,0.7-0.8,1-1.1,1.1
			c-0.3,0.1-0.9,0.3-1.6-0.1c-3.2-1.5-6.9-0.9-9.4,1.6c-2.5,2.4-3.1,6-1.6,9.2c0.4,0.7,0.1,1.3,0.1,1.6c-0.1,0.3-0.4,0.9-1.2,1.1
			c-3.3,1.1-5.5,4.2-5.5,7.6s2.1,6.5,5.5,7.6c0.7,0.3,1,0.8,1.2,1.1c0.1,0.3,0.3,0.9-0.1,1.6c-1.5,3.2-0.9,6.7,1.6,9.2
			c1.2,1.1,2.7,1.9,4.2,2.2v37.6l15.6-15.3l15.6,15.3v-37.6c1.5-0.3,3.1-1,4.2-2.2c2.5-2.4,3.1-6,1.6-9.2c-0.4-0.7-0.1-1.3-0.1-1.6
			c0.1-0.3,0.4-0.9,1.2-1.1c3.3-1.1,5.5-4.2,5.5-7.6S268.1,187.6,264.8,186.4z M242.2,229.4l-9.4,9.2v-23.7h0.1
			c0.1,0,0.3,0.1,0.4,0.1c0.1,0.1,0.4,0.1,0.6,0.4s0.4,0.4,0.5,0.8c1.2,3.2,4.2,5.4,7.7,5.4c3.5,0,6.6-2.1,7.7-5.4
			c0.1-0.4,0.4-0.6,0.5-0.8c0.2-0.2,0.4-0.3,0.6-0.4c0.1-0.1,0.2-0.1,0.4-0.1h0.1v23.7L242.2,229.4z M262.7,195.9
			c-2.2,0.8-3.9,2.4-4.8,4.5c-0.9,2.1-0.8,4.5,0.1,6.5c0.5,1.1-0.1,1.9-0.4,2.2c-0.2,0.2-0.9,0.7-1.8,0.5l-0.7-0.2
			c-0.3-0.1-0.6-0.2-0.9-0.3c-0.2-0.1-0.4-0.1-0.7-0.2c-0.3-0.1-0.6-0.1-0.9-0.1c-0.2,0-0.5-0.1-0.7-0.1c-0.3,0-0.6,0.1-0.9,0.1
			c-0.3,0-0.5,0-0.8,0.1c-0.6,0.1-1.1,0.3-1.6,0.5l0,0l0,0c-0.1,0.1-0.2,0.1-0.4,0.2c-0.4,0.2-0.8,0.4-1.1,0.6
			c-0.4,0.3-0.8,0.6-1.2,1c-0.1,0.1-0.1,0.1-0.1,0.1c-0.8,0.8-1.4,1.8-1.8,2.9c-0.4,1.1-1.5,1.3-1.9,1.3s-1.5-0.1-1.9-1.3
			c-0.4-1.1-1-2.1-1.8-2.9l-0.1-0.1c-0.4-0.4-0.7-0.7-1.2-1c-0.4-0.2-0.7-0.4-1.1-0.6c-0.1-0.1-0.3-0.1-0.4-0.2l0,0l0,0
			c-0.1,0-0.1,0-0.2-0.1c-0.4-0.1-0.9-0.3-1.4-0.4c-0.4-0.1-0.7-0.1-1.2-0.1c-0.1,0-0.3-0.1-0.4-0.1l0,0c-1.2,0-2.3,0.2-3.3,0.7
			l-0.7,0.2c-0.9,0.2-1.5-0.3-1.8-0.5c-0.3-0.3-0.9-1.1-0.4-2.2c1-2.1,1-4.4,0.1-6.5c-0.9-2.1-2.6-3.7-4.8-4.5
			c-1.2-0.4-1.3-1.4-1.3-1.9s0.1-1.4,1.3-1.9c2.2-0.8,3.9-2.4,4.8-4.5c0.9-2.1,0.8-4.5-0.1-6.5c-0.5-1.1,0.1-1.9,0.4-2.2
			c0.3-0.3,1.1-0.9,2.3-0.4c2.1,1,4.5,1.1,6.6,0.1c2.1-0.9,3.8-2.6,4.6-4.7c0.4-1.1,1.5-1.3,1.9-1.3c0.4,0,1.5,0.1,1.9,1.3
			c0.8,2.2,2.5,3.9,4.6,4.7c2.1,0.9,4.6,0.8,6.6-0.1c1.2-0.6,2,0.1,2.3,0.4s0.9,1.1,0.4,2.2c-1,2.1-1,4.4-0.1,6.5
			c0.9,2.1,2.6,3.7,4.8,4.5c1.2,0.4,1.3,1.4,1.3,1.9S263.9,195.4,262.7,195.9z"/>
	</g>
</g>
<text transform="matrix(1 0 0 1 105.0815 409.4342)" class="st1 st2">Contrato</text>
</svg>
