<?xml version="1.0" encoding="utf-8"?>
<!-- Generator: Adobe Illustrator 23.0.0, SVG Export Plug-In . SVG Version: 6.00 Build 0)  -->
<svg version="1.1" id="Layer_1" xmlns="http://www.w3.org/2000/svg" xmlns:xlink="http://www.w3.org/1999/xlink" x="0px" y="0px"
	 viewBox="0 0 425.2 425.2" style="enable-background:new 0 0 425.2 425.2;" xml:space="preserve">
<style type="text/css">
	.st0{fill:#231F20;}
	.st1{font-family:'PlexesBlackPro';}
	.st2{font-size:63.0614px;}
</style>
<g>
	<path class="st0" d="M212.6,0c-97.7,0-177,79.2-177,177s79.3,177,177,177s177-79.2,177-177S310.3,0,212.6,0z M212.6,341.7
		C121.7,341.7,48,268,48,177S121.7,12.3,212.6,12.3S377.2,86,377.2,177S303.5,341.7,212.6,341.7z"/>
	<g id="Guides">
	</g>
	<g>
		<path class="st0" d="M180,139.8h32.5c1.8,0,3.3-1.5,3.3-3.3c0-1.8-1.5-3.3-3.3-3.3H180c-1.8,0-3.3,1.5-3.3,3.3
			C176.8,138.3,178.2,139.8,180,139.8z"/>
		<path class="st0" d="M261.4,218.5H180c-1.8,0-3.3,1.5-3.3,3.3c0,1.8,1.5,3.3,3.3,3.3h81.3c1.8,0,3.3-1.5,3.3-3.3
			C264.6,219.9,263.1,218.5,261.4,218.5z"/>
		<path class="st0" d="M261.4,201H180c-1.8,0-3.3,1.5-3.3,3.3c0,1.8,1.5,3.3,3.3,3.3h81.3c1.8,0,3.3-1.5,3.3-3.3
			C264.6,202.4,263.1,201,261.4,201z"/>
		<path class="st0" d="M261.4,185.3H180c-1.8,0-3.3,1.5-3.3,3.3c0,1.8,1.5,3.3,3.3,3.3h81.3c1.8,0,3.3-1.5,3.3-3.3
			C264.6,186.8,263.1,185.3,261.4,185.3z"/>
		<path class="st0" d="M261.4,159.3H180c-1.8,0-3.3,1.5-3.3,3.3s1.5,3.3,3.3,3.3h81.3c1.8,0,3.3-1.5,3.3-3.3
			S263.1,159.3,261.4,159.3z"/>
		<path class="st0" d="M261.4,237.4H180c-1.8,0-3.3,1.5-3.3,3.3c0,1.8,1.5,3.3,3.3,3.3h81.3c1.8,0,3.3-1.5,3.3-3.3
			C264.6,238.9,263.1,237.4,261.4,237.4z"/>
		<path class="st0" d="M274.3,125.4V78H134.5v178.9h16.3v16.3h139.9V141.7L274.3,125.4z M245.1,105.3l29.3,29.3l5.2,5.2h-34.4V105.3
			L245.1,105.3z M141,250.4V84.5h126.9v34.4l-24.7-24.7h-92.5v156.1H141z M157.2,266.6v-9.8V100.7h81.3v45.5h45.5v120.4H157.2z"/>
		<path class="st0" d="M261.6,165.8h-9.5c-1.8,0-3.3-1.5-3.3-3.3l0,0c0-1.8,1.5-3.3,3.3-3.3h9.5c1.8,0,3.3,1.5,3.3,3.3l0,0
			C264.8,164.3,263.4,165.8,261.6,165.8z"/>
		<path class="st0" d="M261.6,191.8h-9.5c-1.8,0-3.3-1.5-3.3-3.3l0,0c0-1.8,1.5-3.3,3.3-3.3h9.5c1.8,0,3.3,1.5,3.3,3.3l0,0
			C264.8,190.4,263.4,191.8,261.6,191.8z"/>
	</g>
</g>
<text transform="matrix(1 0 0 1 27.8321 409.4342)" class="st1 st2">Documentação</text>
</svg>
