<?xml version="1.0" encoding="utf-8"?>
<!-- Generator: Adobe Illustrator 23.0.0, SVG Export Plug-In . SVG Version: 6.00 Build 0)  -->
<svg version="1.1" id="Layer_1" xmlns="http://www.w3.org/2000/svg" xmlns:xlink="http://www.w3.org/1999/xlink" x="0px" y="0px"
	 viewBox="0 0 425.2 425.2" style="enable-background:new 0 0 425.2 425.2;" xml:space="preserve">
<style type="text/css">
	.st0{fill:#231F20;}
	.st1{font-family:'PlexesBlackPro';}
	.st2{font-size:63.0614px;}
</style>
<g>
	<path class="st0" d="M212.6,0c-97.7,0-177,79.2-177,177s79.3,177,177,177s177-79.2,177-177S310.3,0,212.6,0z M212.6,341.7
		C121.7,341.7,48,268,48,177S121.7,12.3,212.6,12.3S377.2,86,377.2,177S303.5,341.7,212.6,341.7z"/>
	<g id="Guides">
	</g>
	<g>
		<path d="M268.1,83.6h-39.2l5.9-7.9c1.1-1.5,0.8-3.5-0.6-4.6c-1.5-1.1-3.5-0.8-4.6,0.6l-8.8,11.8h-16l-5.6-11.3
			c-0.8-1.6-2.8-2.3-4.4-1.5c-1.6,0.8-2.3,2.8-1.5,4.4l4.2,8.3H157c-5.4,0-9.8,4.4-9.8,9.8v163.6c0,5.4,4.4,9.8,9.8,9.8h111.2
			c5.4,0,9.8-4.4,9.8-9.8V93.4C277.9,88,273.5,83.6,268.1,83.6z M271.4,257c0,1.8-1.5,3.3-3.3,3.3H156.9c-1.8,0-3.3-1.5-3.3-3.3
			V93.4c0-1.8,1.5-3.3,3.3-3.3h43.7l3.3,6.5c-2.8,2.4-4.5,5.9-4.5,9.8c0,7.2,5.8,13.1,13.1,13.1s13.1-5.8,13.1-13.1
			s-5.8-13.1-13.1-13.1c-0.9,0-1.9,0.1-2.7,0.3l-1.8-3.5h60.1c1.8,0,3.3,1.5,3.3,3.3L271.4,257L271.4,257z M207.1,103l2.5,5.1
			c0.6,1.2,1.7,1.8,2.9,1.8c0.5,0,1-0.1,1.5-0.3c1.6-0.8,2.3-2.8,1.5-4.4l-2.5-5c3.4,0.2,6.1,3.1,6.1,6.5c0,3.6-2.9,6.5-6.5,6.5
			c-3.6,0-6.5-2.9-6.5-6.5C206,105.2,206.4,104,207.1,103z"/>
		<path d="M245.2,211.2h-65.4c-1.8,0-3.3,1.5-3.3,3.3c0,1.8,1.5,3.3,3.3,3.3h65.4c1.8,0,3.3-1.5,3.3-3.3
			C248.4,212.6,247,211.2,245.2,211.2z"/>
		<path d="M245.2,227.6h-65.4c-1.8,0-3.3,1.5-3.3,3.3c0,1.8,1.5,3.3,3.3,3.3h65.4c1.8,0,3.3-1.5,3.3-3.3
			C248.4,229,247,227.6,245.2,227.6z"/>
		<path d="M245.2,243.9h-65.4c-1.8,0-3.3,1.5-3.3,3.3c0,1.8,1.5,3.3,3.3,3.3h65.4c1.8,0,3.3-1.5,3.3-3.3
			C248.4,245.4,247,243.9,245.2,243.9z"/>
		<path d="M245.2,126.2h-65.4v78.5h65.4V126.2z M212.5,136c9,0,16.3,7.3,16.3,16.3c0,9-7.3,16.3-16.3,16.3s-16.3-7.3-16.3-16.3
			C196.2,143.3,203.5,136,212.5,136z M232.1,198.1h-39.2v-3.3c0-10.8,8.8-19.6,19.6-19.6c10.8,0,19.6,8.8,19.6,19.6L232.1,198.1
			L232.1,198.1z"/>
	</g>
</g>
<text transform="matrix(1 0 0 1 42.1789 409.4344)" class="st1 st2">Apresentação</text>
</svg>
