<?xml version="1.0" encoding="utf-8"?>
<!-- Generator: Adobe Illustrator 23.0.0, SVG Export Plug-In . SVG Version: 6.00 Build 0)  -->
<svg version="1.1" id="Layer_1" xmlns="http://www.w3.org/2000/svg" xmlns:xlink="http://www.w3.org/1999/xlink" x="0px" y="0px"
	 viewBox="0 0 425.2 425.2" style="enable-background:new 0 0 425.2 425.2;" xml:space="preserve">
<style type="text/css">
	.st0{fill:#231F20;}
	.st1{font-family:'PlexesBlackPro';}
	.st2{font-size:63.0614px;}
</style>
<g>
	<path class="st0" d="M212.6,0c-97.7,0-177,79.2-177,177s79.3,177,177,177s177-79.2,177-177S310.3,0,212.6,0z M212.6,341.7
		C121.7,341.7,48,268,48,177S121.7,12.3,212.6,12.3S377.2,86,377.2,177S303.5,341.7,212.6,341.7z"/>
	<g id="Guides">
	</g>
	<path d="M313.7,146.7c-0.3-5.8-7.2-10.3-20.9-13.7c0.4-1,0.7-2.1,0.7-3.1v-23.6h-0.1C292.2,86.5,211.7,86,202.5,86
		c-9.3,0-89.7,0.6-90.9,20.2h-0.1v0.4l0,0l0,0v23.2c0,6.4,8.3,11.5,20.5,15.1c-0.2,0.5-0.3,1.1-0.3,1.7h-0.1v0.4l0,0l0,0v23.1
		c-13.3,3.4-19.8,7.9-20.2,13.6l0,0v0.4l0,0l0,0v23.2c0,4.5,4,8.2,10.6,11.4c-0.3,0.7-0.4,1.4-0.4,2.1h-0.1v0.4l0,0l0,0v23.2
		c0,11.2,25.3,18.2,53.3,21.4c0.2,0,0.4,0.1,0.6,0.1c0.1,0,0.1,0,0.2,0c5.4,0.6,10.9,1,16.3,1.4c0.1,0,0.2,0.1,0.3,0.1
		c0.1,0,0.1,0,0.2,0c6.9,0.4,13.7,0.6,20,0.6s13.1-0.2,20-0.6c0.1,0,0.1,0,0.2,0c0.1,0,0.3-0.1,0.3-0.1c5.4-0.3,10.9-0.8,16.3-1.4
		c0.1,0,0.1,0,0.2,0c0.3,0,0.4-0.1,0.6-0.1c28.1-3.2,53.2-10.2,53.3-21.4v-23.6h-0.1c-0.3-4.1-3.8-7.6-10.8-10.5
		c0.4-1,0.7-2,0.7-3.1v-22c12.1-3.8,20.2-8.7,20.2-15L313.7,146.7L313.7,146.7z M286.4,208.4l-1.1,1c-1.7,1.6-4.7,3.1-8.6,4.6V198
		c4-1.4,7.4-3,10.1-4.6v14C286.8,207.7,286.7,208,286.4,208.4z M211.1,224.1c-0.5,0-1,0-1.5,0c-1.2,0-2.4,0-3.7,0v-16.9
		c1,0,1.8,0,2.8,0c0.2,0,0.3,0,0.5,0c3.4-0.1,6.8-0.2,10.1-0.3v16.8c-0.7,0-1.5,0.1-2.2,0.1C215.2,223.9,213.2,224,211.1,224.1z
		 M196.3,224.1c-1.6,0-3.1-0.1-4.6-0.1c-0.2,0-0.3,0-0.5,0c-1.8-0.1-3.7-0.2-5.5-0.3V207c3.4,0.2,6.7,0.3,10.1,0.3
		c0.2,0,0.3,0,0.5,0c1,0,1.8,0,2.8,0v16.9c-0.6,0-1.3,0-1.9,0C196.9,224.1,196.6,224.1,196.3,224.1z M135.4,216.4
		c-0.1,0-0.2-0.1-0.3-0.1v-16.3c3.1,0.9,6.6,1.7,10.1,2.4v16.4c-3.1-0.7-5.9-1.3-8.6-2.1C136.2,216.7,135.9,216.5,135.4,216.4z
		 M206.5,244.3c1,0,1.8,0,2.8,0v17c-4.6-0.1-9.2-0.2-13.5-0.3v-16.8c3.4,0.2,6.7,0.3,10.1,0.3C206.2,244.3,206.3,244.3,206.5,244.3z
		 M219.3,244.3c3.4-0.1,6.8-0.2,10.1-0.3v16.8c-4.4,0.2-8.8,0.3-13.5,0.3v-16.9c1,0,1.8,0,2.8,0
		C218.9,244.3,219.1,244.3,219.3,244.3z M246.4,242.8v16.7c-3.2,0.3-6.6,0.6-10.1,0.9v-16.8C239.7,243.4,243.1,243.2,246.4,242.8z
		 M253.1,242.1c3.5-0.4,6.8-0.9,10.1-1.4v16.5c-3.1,0.5-6.6,1-10.1,1.6V242.1z M269.9,239.5c3.6-0.7,7-1.5,10.1-2.4v16.3
		c-3,0.9-6.4,1.7-10.1,2.5V239.5z M155.4,239.5v16.4c-3.8-0.8-7.1-1.7-10.1-2.5v-16.3C148.4,238,151.8,238.7,155.4,239.5z
		 M162.1,240.6c3.2,0.5,6.6,1,10.1,1.4v16.7c-3.6-0.4-6.9-1-10.1-1.6V240.6z M178.9,242.8c3.3,0.3,6.7,0.6,10.1,0.8v16.8
		c-3.5-0.3-6.9-0.5-10.1-0.9V242.8z M170.6,222.6c-0.3,0-0.7-0.1-1-0.1c-0.3,0-0.5-0.1-0.7-0.1v-16.7c3.3,0.3,6.7,0.6,10.1,0.8v16.8
		C176.1,223.2,173.3,222.9,170.6,222.6z M162.1,205v16.7c-3.6-0.4-6.9-1-10.1-1.6v-16.5C155.2,204.1,158.6,204.6,162.1,205z
		 M228.4,223.2c-0.7,0.1-1.5,0.1-2.3,0.2v-16.8c3.4-0.3,6.8-0.5,10.1-0.8v16.7c-2.1,0.3-4.2,0.4-6.4,0.6
		C229.3,223.2,228.8,223.2,228.4,223.2z M243,221.7V205c3.5-0.4,6.8-0.9,10.1-1.4v16.5C249.9,220.7,246.6,221.2,243,221.7z
		 M259.9,202.4c3.6-0.7,7-1.5,10.1-2.4v16.3c-3,0.9-6.4,1.7-10.1,2.5V202.4z M213.8,187c-2.5-0.1-5-0.2-7.4-0.3c-0.2,0-0.3,0-0.3,0
		v-16.8c3.4,0.2,6.7,0.3,10.1,0.3c0.2,0,0.3,0,0.5,0c1,0,1.8,0,2.8,0v16.8c-1.7,0-3.3,0-4.9-0.1C214.2,187,214,187,213.8,187z
		 M135.1,138.8v-16.3c3.1,0.9,6.6,1.7,10.1,2.4v16.4c-0.4-0.1-0.9-0.2-1.2-0.3c-1.8-0.4-3.6-0.8-5.2-1.2
		C137.5,139.5,136.3,139.1,135.1,138.8z M196.4,129.8c1,0,1.8,0,2.8,0v16.8c-4.5-0.1-9-0.2-13.5-0.3v-16.8c3.4,0.2,6.7,0.3,10.1,0.3
		C196,129.8,196.2,129.8,196.4,129.8z M209.2,129.7c3.4-0.1,6.8-0.2,10.1-0.3v16.8c-0.6,0-1.1,0.1-1.7,0.1c-0.1,0-0.1,0-0.2,0
		c-2.3,0.1-4.5,0.2-6.9,0.3c-0.3,0-0.7,0-1,0c-1.2,0-2.4,0-3.7,0v-16.9c1,0,1.8,0,2.8,0C208.9,129.8,209.1,129.8,209.2,129.7z
		 M286,131.4L286,131.4l-1.3,1c-1.7,1.4-4.5,2.8-8,4.1v-16c4-1.4,7.4-3,10.1-4.6v14C286.8,130.3,286.5,130.8,286,131.4z M243,144.1
		v-16.6c3.5-0.4,6.8-0.9,10.1-1.4v16.5C249.9,143.2,246.6,143.7,243,144.1z M259.9,141.3v-16.4c3.6-0.7,7-1.5,10.1-2.4v16.3
		C266.9,139.7,263.5,140.5,259.9,141.3z M236.2,128.2v16.7c-3.2,0.3-6.6,0.6-10.1,0.9V129C229.5,128.8,232.9,128.6,236.2,128.2z
		 M168.8,144.9v-16.7c3.3,0.3,6.7,0.6,10.1,0.8v16.8C175.5,145.6,172.2,145.3,168.8,144.9z M162.1,127.5v16.6
		c-0.7-0.1-1.4-0.2-2-0.3c-0.4-0.1-0.9-0.1-1.2-0.2c-1.9-0.3-3.8-0.6-5.7-0.9c-0.3-0.1-0.7-0.2-1.1-0.2v-16.5
		C155.2,126.6,158.6,127.1,162.1,127.5z M198.3,186.3c-0.4,0-0.9-0.1-1.4-0.1c-2.2-0.2-4.3-0.3-6.3-0.5c-0.4-0.1-0.9-0.1-1.3-0.2
		c-0.1,0-0.2,0-0.3,0v-16.7c3.3,0.3,6.7,0.6,10.1,0.8v16.8C198.9,186.3,198.6,186.3,198.3,186.3z M176.1,183.7
		c-1.3-0.2-2.6-0.4-3.8-0.7v-16.5c3.2,0.5,6.6,1,10.1,1.4v16.7c-2.1-0.3-4.1-0.5-6-0.9C176.2,183.7,176.1,183.7,176.1,183.7z
		 M165.4,165.3v16.4c-3.8-0.8-7.1-1.7-10.1-2.5v-16.3C158.5,163.8,161.8,164.6,165.4,165.3z M148.6,160.9v16c-5.3-2-8.7-4.1-9.8-6
		l-0.3-0.3c0-0.1-0.1-0.2-0.1-0.3v-14C141.2,157.9,144.6,159.5,148.6,160.9z M229.4,170.2c3.4-0.1,6.8-0.2,10.1-0.3v16.8
		c-4.5,0.3-8.9,0.3-13.5,0.3v-16.8c1,0,1.8,0,2.8,0C229.1,170.2,229.3,170.2,229.4,170.2z M273,183.1c-1.5,0.3-3,0.5-4.5,0.7
		c-0.9,0.2-1.7,0.3-2.7,0.3c-0.9,0.1-1.7,0.3-2.6,0.3v-16.6c3.5-0.4,6.8-0.9,10.1-1.4V183C273.2,183.1,273.1,183.1,273,183.1z
		 M250.2,186c-1.2,0.1-2.5,0.2-3.8,0.3v-16.8c3.4-0.3,6.8-0.5,10.1-0.8v16.7c-1.9,0.2-3.9,0.4-5.9,0.6
		C250.4,186,250.3,186,250.2,186z M288.7,179.7c-1.7,0.4-3.5,0.9-5.2,1.3c-0.9,0.2-1.7,0.3-2.5,0.6c-0.3,0.1-0.5,0.1-0.8,0.2v-16.4
		c3.6-0.7,7-1.5,10.1-2.4v16.3C289.7,179.4,289.2,179.5,288.7,179.7z M307,146.9c-0.3,2.3-5.5,5.3-14.8,8.2l0,0
		c-11.9,3.7-30.6,7.1-54.2,8.1c-1.2,0.1-2.4,0.1-3.7,0.2c-1,0-2,0.1-3.1,0.1c-2.8,0.1-5.6,0.1-8.6,0.1c-2.9,0-5.8-0.1-8.6-0.1
		c-1,0-2-0.1-3.1-0.1c-1.2,0-2.4-0.1-3.7-0.2c-23.6-1-42.3-4.5-54.2-8.1l0,0c-9.2-2.8-14.3-5.9-14.8-8.1c0-0.1,0-0.1,0.1-0.2
		c0.3,0.1,0.5,0.1,0.7,0.2c1.3,0.3,2.7,0.6,4,0.9c6.7,1.5,14.1,2.6,22,3.5h0.1l0,0c5.4,0.6,11,1.1,16.7,1.4c0.1,0,0.1,0,0.1,0
		s0,0,0.1,0c4.1,0.3,8.3,0.4,12.5,0.5c2.6,0.1,5.2,0.1,7.6,0.1c1.7,0,3.6,0,5.4-0.1c24.5-0.3,47.2-3.3,62.9-7.8
		c0.7-0.2,1.4-0.4,2.1-0.6c0.4-0.2,0.9-0.3,1.3-0.3c1.2-0.3,2.4-0.8,3.5-1.2c0.2-0.1,0.3-0.2,0.6-0.3c1-0.3,1.8-0.7,2.7-1.1
		c0.3-0.1,0.5-0.3,0.8-0.3c1-0.4,1.8-0.9,2.7-1.3c0.3-0.2,0.7-0.4,1-0.6c0.4-0.3,0.8-0.4,1.2-0.7c0.2-0.2,0.4-0.3,0.7-0.4
		C302.6,141.9,306.6,145.5,307,146.9z M202.5,92.7c55.6,0,83.7,8.7,84.2,13.8c-0.4,2.3-5.6,5.2-14.8,8.1l0,0
		c-11.9,3.7-30.6,7.1-54.2,8.1c-1.2,0.1-2.4,0.1-3.7,0.2c-1,0-2,0.1-3.1,0.1c-2.8,0.1-5.6,0.1-8.6,0.1c-2.9,0-5.8-0.1-8.6-0.1
		c-1,0-2-0.1-3.1-0.1c-1.2,0-2.4-0.1-3.7-0.2c-23.6-1-42.3-4.5-54.2-8.1l0,0c-9.2-2.8-14.3-5.9-14.8-8.1
		C118.8,101.5,147,92.7,202.5,92.7z M118.3,129.8v-14c2.7,1.7,6.1,3.2,10.1,4.6v16.2C121.8,134.2,118.3,131.7,118.3,129.8z
		 M134.6,176.5c0.1,0.1,0.1,0.1,0.2,0.2c4.6,4.6,14.2,8.3,26.1,11c0.3,0.1,0.5,0.1,0.9,0.2c0.9,0.2,1.7,0.3,2.6,0.6
		c10.9,2.4,24,4,38.2,4.8l0,0l0,0c4.5,0.3,9.3,0.4,14,0.5c2.1,0.1,4.2,0.1,6.2,0.1c2.4,0,4.7,0,7.2-0.1c4.4-0.1,8.7-0.3,13-0.5
		c0,0,0,0,0.1,0h0.1c14.3-0.9,27.6-2.5,38.9-5c-2.4,1.3-5.8,2.6-10,3.9l0,0c-12.6,3.8-32.7,7.4-58.2,8.2c-0.8,0-1.5,0.1-2.3,0.1
		s-1.7,0-2.5,0.1c-2.1,0-4.3,0.1-6.5,0.1c-2.9,0-5.8-0.1-8.6-0.1c-1,0-2-0.1-3.1-0.1c-1.2,0-2.4-0.1-3.7-0.2
		c-23.6-1-42.3-4.5-54.2-8.1l0,0c-9.3-2.9-14.4-5.9-14.8-8.2C118.7,182.7,122.1,179.5,134.6,176.5z M118.3,207.3v-14
		c2.7,1.7,6.1,3.2,10.1,4.6v16.1l-1.9-0.8l0,0C121.1,211.2,118.3,209,118.3,207.3z M128.4,244.4v-14c2.7,1.7,6.1,3.2,10.1,4.6v16.2
		C131.9,248.8,128.4,246.3,128.4,244.4z M286.8,251.2v-16.2c4-1.4,7.4-3,10.1-4.6v14C296.9,246.3,293.3,248.8,286.8,251.2z
		 M296.8,221.1c-0.3,2.3-5.5,5.3-14.8,8.1l0,0c-11.9,3.7-30.6,7.1-54.2,8.1c-1.2,0.1-2.4,0.1-3.7,0.2c-1,0-2,0.1-3.1,0.1
		c-2.8,0.1-5.6,0.1-8.6,0.1s-5.8-0.1-8.6-0.1c-1,0-2-0.1-3.1-0.1c-1.2,0-2.4-0.1-3.7-0.2c-23.6-1-42.3-4.5-54.2-8.1l0,0
		c-8.9-2.7-14.1-5.7-14.7-8c1,0.3,2,0.7,3.1,1c0.1,0,0.2,0.1,0.3,0.1c0.9,0.3,1.8,0.5,2.8,0.8c0.3,0.1,0.7,0.2,1,0.3
		c0.5,0.2,1,0.3,1.7,0.4c12.2,3.1,28,5.3,44.9,6.4l0,0l0,0c5.2,0.3,10.6,0.5,15.9,0.5c1.4,0,2.9,0,4.3,0c1.8,0,3.8,0,5.7-0.1
		c4.9-0.1,9.8-0.3,14.5-0.5l0,0c0,0,0,0,0.1,0c5.8-0.3,11.4-0.9,16.8-1.5c0,0,0,0,0.1,0s0.2,0,0.2-0.1c5.9-0.7,11.6-1.6,17-2.5
		c1-0.2,2.2-0.4,3.2-0.6c0.3-0.1,0.4-0.1,0.7-0.2c10-2,18.5-4.7,24.5-8c0.3-0.2,0.6-0.3,1-0.5c0.3-0.3,0.7-0.4,1-0.7
		c0.3-0.2,0.7-0.4,1-0.6C294.8,218.1,296.7,220.2,296.8,221.1z M296.9,177.1v-16.2c4-1.4,7.4-3,10.1-4.6v14
		C307,172.1,303.5,174.6,296.9,177.1z"/>
</g>
<text transform="matrix(1 0 0 1 72.2899 409.4344)" class="st1 st2">Pagamento</text>
</svg>
