<?xml version="1.0" encoding="utf-8"?>
<!-- Generator: Adobe Illustrator 23.0.0, SVG Export Plug-In . SVG Version: 6.00 Build 0)  -->
<svg version="1.1" id="Layer_1" xmlns="http://www.w3.org/2000/svg" xmlns:xlink="http://www.w3.org/1999/xlink" x="0px" y="0px"
	 viewBox="0 0 425.2 425.2" style="enable-background:new 0 0 425.2 425.2;" xml:space="preserve">
<style type="text/css">
	.st0{fill:#557CF2;}
	.st1{fill:#F37482;stroke:#F37482;stroke-width:3;stroke-miterlimit:10;}
</style>
<g>
	<path class="st0" d="M212.6,10.1c-111.8,0-202.5,90.6-202.5,202.5S100.8,415,212.6,415s202.5-90.6,202.5-202.5
		S324.4,10.1,212.6,10.1z M212.6,400.9c-104,0-188.3-84.3-188.3-188.3S108.6,24.2,212.6,24.2s188.3,84.3,188.3,188.3
		S316.6,400.9,212.6,400.9z"/>
	<path class="st0" d="M212.6,420c-55.4,0-107.5-21.6-146.7-60.7C26.7,320.1,5.1,268,5.1,212.6S26.7,105,65.9,65.9
		c39.2-39.2,91.3-60.8,146.7-60.8s107.5,21.6,146.7,60.7c39.2,39.2,60.8,91.3,60.8,146.7s-21.6,107.6-60.8,146.7
		C320.1,398.4,268,420,212.6,420z M212.6,15.1c-108.9,0-197.5,88.6-197.5,197.5c0,108.8,88.6,197.4,197.5,197.4
		s197.5-88.6,197.5-197.5C410.1,103.7,321.5,15.1,212.6,15.1z M212.6,405.9c-106.6,0-193.3-86.7-193.3-193.3
		C19.3,106,106,19.2,212.6,19.2s193.3,86.7,193.3,193.3C405.9,319.1,319.2,405.9,212.6,405.9z M212.6,29.2
		c-101.1,0-183.3,82.3-183.3,183.4s82.2,183.3,183.3,183.3s183.3-82.3,183.3-183.4C395.9,111.4,313.7,29.2,212.6,29.2z"/>
</g>
<g id="Guides">
</g>
<path class="st1" d="M135.8,236.9c1.5,1,3.2,1.5,4.9,1.5c2.8,0,5.6-1.4,7.3-3.9c14.3-21.3,38.1-34,63.8-34
	c25.6,0,49.4,12.7,63.7,33.9c2.7,4,8.2,5.1,12.2,2.4c4-2.7,5.1-8.2,2.4-12.2c-11.4-16.9-27.7-29.5-46.4-36.1
	c11.2-9.2,18.4-23.1,18.4-38.6c0-27.5-22.4-49.9-49.9-49.9s-49.9,22.4-49.9,49.9c0,15.4,7.1,29.3,18.1,38.4
	c-19,6.7-35.6,19.3-47.1,36.5C130.6,228.7,131.7,234.2,135.8,236.9z M212.2,117.5c17.8,0,32.2,14.4,32.2,32.2s-14.4,32.2-32.2,32.2
	S180,167.5,180,149.7S194.4,117.5,212.2,117.5z M247.4,256.1l-13.2,9.5c-2,1.4-2.8,3.9-2,6.2l5.3,15.4c0.2,0.7,0.3,1.4,0.3,2
	c-0.2,4.1-5.4,6.9-9.1,4.2l-13.2-9.5c-1-0.7-2.1-1.1-3.3-1.1s-2.3,0.4-3.3,1.1l-13.2,9.5c-3.8,2.7-9-0.1-9.1-4.2
	c0-0.6,0.1-1.3,0.3-2l5.3-15.4c0.7-2.3-0.1-4.8-2-6.2l-13.2-9.5c-4.4-3.2-2.1-10.6,3.3-10.6h16.3c2.4,0,4.6-0.9,5.3-3.2l5-15.5
	c0.8-2.6,3.1-3.8,5.3-3.8s4.5,1.3,5.3,3.8l5,15.5c0.7,2.3,2.9,3.2,5.3,3.2h16.3C249.5,245.5,251.7,253,247.4,256.1z M322.8,287
	l-13.2,9.5c-2,1.4-2.8,3.9-2,6.2l5.3,15.4c0.2,0.7,0.3,1.4,0.3,2c-0.2,4.1-5.4,6.9-9.1,4.2l-13.2-9.5c-1-0.7-2.1-1.1-3.3-1.1
	c-1.2,0-2.3,0.4-3.3,1.1l-13.2,9.5c-3.8,2.7-9-0.1-9.1-4.2c0-0.6,0.1-1.3,0.3-2l5.3-15.4c0.7-2.3-0.1-4.8-2-6.2l-13.2-9.5
	c-4.4-3.2-2.1-10.6,3.3-10.6H272c2.4,0,4.6-0.9,5.3-3.2l5-15.5c0.8-2.6,3.1-3.8,5.3-3.8s4.5,1.3,5.3,3.8l5,15.5
	c0.7,2.3,2.9,3.2,5.3,3.2h16.3C324.9,276.4,327.2,283.8,322.8,287z M171.9,287l-13.2,9.5c-2,1.4-2.8,3.9-2,6.2l5.3,15.4
	c0.2,0.7,0.3,1.4,0.3,2c-0.2,4.1-5.4,6.9-9.1,4.2l-13.2-9.5c-1-0.7-2.1-1.1-3.3-1.1s-2.3,0.4-3.3,1.1l-13.2,9.5
	c-3.8,2.7-9-0.1-9.1-4.2c0-0.6,0.1-1.3,0.3-2l5.3-15.4c0.7-2.3-0.1-4.8-2-6.2l-13.2-9.5c-4.4-3.2-2.1-10.6,3.3-10.6h16.3
	c2.4,0,4.6-0.9,5.3-3.2l5-15.5c0.8-2.6,3.1-3.8,5.3-3.8s4.5,1.3,5.3,3.8l5,15.5c0.7,2.3,2.9,3.2,5.3,3.2h16.3
	C174,276.4,176.3,283.8,171.9,287z"/>
</svg>
