<?xml version="1.0" encoding="utf-8"?>
<!-- Generator: Adobe Illustrator 23.0.0, SVG Export Plug-In . SVG Version: 6.00 Build 0)  -->
<svg version="1.1" id="Layer_1" xmlns="http://www.w3.org/2000/svg" xmlns:xlink="http://www.w3.org/1999/xlink" x="0px" y="0px"
	 viewBox="0 0 425.2 425.2" style="enable-background:new 0 0 425.2 425.2;" xml:space="preserve">
<style type="text/css">
	.st0{fill:#557CF2;}
	.st1{fill:#F37482;stroke:#F37482;stroke-width:8;stroke-miterlimit:10;}
</style>
<g>
	<path class="st0" d="M212.6,10.1c-111.8,0-202.5,90.6-202.5,202.5S100.8,415,212.6,415s202.5-90.6,202.5-202.5
		S324.4,10.1,212.6,10.1z M212.6,400.9c-104,0-188.3-84.3-188.3-188.3S108.6,24.2,212.6,24.2s188.3,84.3,188.3,188.3
		S316.6,400.9,212.6,400.9z"/>
	<path class="st0" d="M212.6,420c-55.4,0-107.5-21.6-146.7-60.7C26.7,320.1,5.1,268,5.1,212.6c0-55.4,21.6-107.6,60.8-146.7
		c39.2-39.2,91.3-60.8,146.7-60.8c55.4,0,107.5,21.6,146.7,60.7c39.2,39.2,60.8,91.3,60.8,146.7c0,55.4-21.6,107.6-60.8,146.7
		C320.1,398.4,268,420,212.6,420z M212.6,15.1c-108.9,0-197.5,88.6-197.5,197.5c0,108.8,88.6,197.4,197.5,197.4
		s197.5-88.6,197.5-197.5C410.1,103.7,321.5,15.1,212.6,15.1z M212.6,405.9c-106.6,0-193.3-86.7-193.3-193.3
		C19.3,106,106,19.2,212.6,19.2c106.6,0,193.3,86.7,193.3,193.3C405.9,319.1,319.2,405.9,212.6,405.9z M212.6,29.2
		c-101.1,0-183.3,82.3-183.3,183.4c0,101.1,82.2,183.3,183.3,183.3c101.1,0,183.3-82.3,183.3-183.4
		C395.9,111.4,313.7,29.2,212.6,29.2z"/>
</g>
<g id="Guides">
</g>
<g>
	<g>
		<path class="st1" d="M305.7,204.4c4-3.9,5.4-9.6,3.7-14.9c-1.7-5.3-6.2-9.1-11.7-9.9l-48.2-7c-0.9-0.1-1.8-0.7-2.2-1.6l-21.6-43.7
			c-2.5-5-7.5-8.1-13-8.1c-5.6,0-10.6,3.1-13,8.1L178,171c-0.4,0.9-1.2,1.5-2.2,1.6l-48.2,7c-5.5,0.8-10,4.6-11.7,9.9
			c-1.7,5.3-0.3,11,3.7,14.9l34.9,34c0.7,0.7,1,1.6,0.8,2.6l-8.2,48c-0.9,5.5,1.3,10.9,5.8,14.2c4.5,3.3,10.4,3.7,15.3,1.1
			l43.1-22.7c0.8-0.4,1.9-0.4,2.7,0l43.1,22.7c2.1,1.1,4.5,1.7,6.8,1.7c3,0,6-0.9,8.5-2.8c4.5-3.3,6.7-8.7,5.8-14.2l-8.2-48
			c-0.2-0.9,0.2-1.9,0.8-2.6L305.7,204.4z M258.5,242.9l8.2,48c0.3,1.6-0.7,2.5-1.2,2.8c-0.4,0.3-1.6,1-3.1,0.2l-43.1-22.7
			c-2.1-1.1-4.4-1.7-6.8-1.7s-4.6,0.6-6.8,1.7L162.7,294c-1.4,0.8-2.6,0.1-3.1-0.2c-0.4-0.3-1.4-1.2-1.2-2.8l8.2-48
			c0.8-4.7-0.8-9.5-4.2-12.9l-34.9-34c-1.2-1.1-0.9-2.5-0.7-3c0.2-0.5,0.7-1.7,2.3-2l48.2-7c4.7-0.7,8.8-3.7,10.9-8l21.6-43.7
			c0.7-1.5,2.1-1.6,2.6-1.6c0.5,0,1.9,0.2,2.6,1.6v0l21.6,43.7c2.1,4.3,6.2,7.3,10.9,8l48.2,7c1.6,0.2,2.2,1.5,2.3,2
			c0.2,0.5,0.4,1.8-0.7,3l-34.9,34C259.2,233.4,257.7,238.2,258.5,242.9z"/>
	</g>
</g>
<g>
	<g>
		<g>
			<path class="st0" d="M280.7,133.6c-2.6-1.9-6.2-1.3-8.1,1.3l-6.2,8.5c-1.9,2.6-1.3,6.2,1.3,8.1c1,0.7,2.2,1.1,3.4,1.1
				c1.8,0,3.6-0.8,4.7-2.4l6.2-8.5C283.9,139.2,283.3,135.5,280.7,133.6z"/>
		</g>
	</g>
	<g>
		<g>
			<path class="st0" d="M158.8,143.4l-6.2-8.5c-1.9-2.6-5.5-3.2-8.1-1.3c-2.6,1.9-3.2,5.5-1.3,8.1l6.2,8.5c1.1,1.6,2.9,2.4,4.7,2.4
				c1.2,0,2.4-0.4,3.4-1.1C160.1,149.6,160.6,146,158.8,143.4z"/>
		</g>
	</g>
	<g>
		<g>
			<path class="st0" d="M123.5,256c-1-3.1-4.3-4.7-7.3-3.7l-10,3.2c-3.1,1-4.7,4.3-3.7,7.3c0.8,2.5,3.1,4,5.5,4
				c0.6,0,1.2-0.1,1.8-0.3l10-3.2C122.9,262.3,124.5,259.1,123.5,256z"/>
		</g>
	</g>
	<g>
		<g>
			<path class="st0" d="M212.4,320.6c-3.2,0-5.8,2.6-5.8,5.8v10.5c0,3.2,2.6,5.8,5.8,5.8s5.8-2.6,5.8-5.8v-10.5
				C218.2,323.2,215.6,320.6,212.4,320.6z"/>
		</g>
	</g>
	<g>
		<g>
			<path class="st0" d="M319,255.5l-10-3.2c-3.1-1-6.3,0.7-7.3,3.7c-1,3.1,0.7,6.3,3.7,7.3l10,3.2c0.6,0.2,1.2,0.3,1.8,0.3
				c2.5,0,4.7-1.6,5.5-4C323.7,259.8,322,256.5,319,255.5z"/>
		</g>
	</g>
</g>
<rect x="-102" y="61.3" class="st0" width="55.4" height="55.4"/>
<rect x="-102" y="132.5" class="st1" width="55.4" height="55.4"/>
</svg>
