<?xml version="1.0" encoding="utf-8"?>
<!-- Generator: Adobe Illustrator 23.0.0, SVG Export Plug-In . SVG Version: 6.00 Build 0)  -->
<svg version="1.1" id="Layer_1" xmlns="http://www.w3.org/2000/svg" xmlns:xlink="http://www.w3.org/1999/xlink" x="0px" y="0px"
	 viewBox="0 0 425.2 425.2" style="enable-background:new 0 0 425.2 425.2;" xml:space="preserve">
<style type="text/css">
	.st0{fill:#557CF2;}
	.st1{fill:#F37482;stroke:#F37482;stroke-width:6;stroke-miterlimit:10;}
	.st2{fill:#557CF2;stroke:#557CF2;stroke-width:5;stroke-miterlimit:10;}
	.st3{fill:#F37482;stroke:#F37482;stroke-width:7;stroke-miterlimit:10;}
	.st4{fill:#557CF2;stroke:#F37482;stroke-width:13;stroke-miterlimit:10;}
</style>
<g>
	<path class="st0" d="M212.6,10.1c-111.8,0-202.5,90.6-202.5,202.5S100.8,415,212.6,415s202.5-90.6,202.5-202.5
		S324.4,10.1,212.6,10.1z M212.6,400.9c-104,0-188.3-84.3-188.3-188.3S108.6,24.2,212.6,24.2s188.3,84.3,188.3,188.3
		S316.6,400.9,212.6,400.9z"/>
	<path class="st0" d="M212.6,420c-55.4,0-107.5-21.6-146.7-60.7C26.7,320.1,5.1,268,5.1,212.6c0-55.4,21.6-107.6,60.8-146.7
		c39.2-39.2,91.3-60.8,146.7-60.8c55.4,0,107.5,21.6,146.7,60.7c39.2,39.2,60.8,91.3,60.8,146.7c0,55.4-21.6,107.6-60.8,146.7
		C320.1,398.4,268,420,212.6,420z M212.6,15.1c-108.9,0-197.5,88.6-197.5,197.5c0,108.8,88.6,197.4,197.5,197.4
		s197.5-88.6,197.5-197.5C410.1,103.7,321.5,15.1,212.6,15.1z M212.6,405.9c-106.6,0-193.3-86.7-193.3-193.3
		C19.3,106,106,19.2,212.6,19.2c106.6,0,193.3,86.7,193.3,193.3C405.9,319.1,319.2,405.9,212.6,405.9z M212.6,29.2
		c-101.1,0-183.3,82.3-183.3,183.4c0,101.1,82.2,183.3,183.3,183.3c101.1,0,183.3-82.3,183.3-183.4
		C395.9,111.4,313.7,29.2,212.6,29.2z"/>
</g>
<g id="Guides">
</g>
<path class="st1" d="M215.5,203.9c-0.5-0.1-0.9-0.1-1.4,0c-4.6-0.5-8.1-4.5-8.1-9.1c0-2.2-1.8-4-4-4s-4,1.8-4,4
	c0,7.8,5.2,14.6,12.7,16.7v4c0,2.2,1.8,4,4,4s4-1.8,4-4v-3.8c8.7-1.8,14.6-9.9,13.7-18.7c-0.9-8.8-8.3-15.5-17.2-15.5
	c-5.1,0-9.2-4.1-9.2-9.2c0-5.1,4.1-9.2,9.2-9.2s9.2,4.1,9.2,9.2c0,2.2,1.8,4,4,4s4-1.8,4-4c0-8.2-5.7-15.2-13.8-16.9v-3.7
	c0-2.2-1.8-4-4-4s-4,1.8-4,4v3.9c-8.4,2.3-13.7,10.4-12.6,19c1.2,8.6,8.5,15,17.1,15c5,0,9.1,4,9.2,9
	C224.4,199.6,220.5,203.7,215.5,203.9z"/>
<path class="st2" d="M156.4,181.8c0,32.4,26.3,58.7,58.7,58.7s58.7-26.3,58.7-58.7s-26.3-58.7-58.7-58.7
	C182.7,123.1,156.4,149.4,156.4,181.8z M215.1,131.2c28,0,50.6,22.7,50.6,50.6s-22.7,50.6-50.6,50.6s-50.6-22.7-50.6-50.6
	C164.5,153.8,187.2,131.2,215.1,131.2z"/>
<path class="st3" d="M293.8,250.5l-31.7,15c-4.4-8.1-12.8-13.3-22-13.6l-29.3-0.8c-4.6-0.1-9.2-1.3-13.3-3.4l-3-1.5
	c-15.3-8-33.4-7.9-48.7,0.1l0.2-6.8c0.1-2.2-1.7-4.1-3.9-4.2l-32.1-0.9c-2.2-0.1-4.1,1.7-4.2,3.9l-1.9,70.5
	c-0.1,2.2,1.7,4.1,3.9,4.2l32.1,0.9h0.1c2.2,0,4-1.7,4-3.9l0.1-3.4l8.3-4.5c3.3-1.8,7.1-2.2,10.7-1.2l49.8,14c0.1,0,0.2,0,0.3,0.1
	c3.6,0.8,7.3,1.1,10.9,1.1c7.8,0,15.5-1.7,22.6-4.9c0.2-0.1,0.3-0.2,0.5-0.3l72.2-46.7c1.8-1.2,2.4-3.5,1.3-5.4
	C315.5,249.2,303.6,245.6,293.8,250.5z M112,305l1.7-62.4l24,0.7l-1.7,62.4L112,305z M243.1,303.9c-8.8,4-18.6,5.1-28.1,3.1
	l-49.7-13.9c-5.6-1.6-11.6-0.9-16.7,1.8l-4.3,2.3l1.1-41.5c13.5-9,30.8-9.9,45.2-2.4l3,1.5c5.2,2.7,11,4.2,16.8,4.3l29.3,0.8
	c8.2,0.2,15.2,6.1,16.9,14.2l-43.6-1.2c-2.2-0.1-4.1,1.7-4.2,3.9c-0.1,2.2,1.7,4.1,3.9,4.2l48.1,1.3h0.1c2.2,0,4-1.7,4-3.9
	c0-1.8-0.1-3.5-0.4-5.3l32.5-15.4h0.1c4.6-2.3,10.2-1.6,14,2L243.1,303.9z"/>
<path class="st4" d="M219.2,105.7V67.2c0-2.2-1.8-4-4-4s-4,1.8-4,4v38.5c0,2.2,1.8,4,4,4S219.2,107.9,219.2,105.7z"/>
<path class="st4" d="M249.6,105.7V87.4c0-2.2-1.8-4-4-4s-4,1.8-4,4v18.2c0,2.2,1.8,4,4,4S249.6,107.9,249.6,105.7z"/>
<path class="st4" d="M188.8,105.7V87.4c0-2.2-1.8-4-4-4s-4,1.8-4,4v18.2c0,2.2,1.8,4,4,4S188.8,107.9,188.8,105.7z"/>
</svg>
