<?xml version="1.0" encoding="utf-8"?>
<!-- Generator: Adobe Illustrator 23.0.0, SVG Export Plug-In . SVG Version: 6.00 Build 0)  -->
<svg version="1.1" id="Layer_1" xmlns="http://www.w3.org/2000/svg" xmlns:xlink="http://www.w3.org/1999/xlink" x="0px" y="0px"
	 viewBox="0 0 425.2 425.2" style="enable-background:new 0 0 425.2 425.2;" xml:space="preserve">
<style type="text/css">
	.st0{fill:#557CF2;}
	.st1{fill:#F37482;}
</style>
<g>
	<path class="st0" d="M212.6,10.1c-111.8,0-202.5,90.6-202.5,202.5S100.8,415,212.6,415s202.5-90.6,202.5-202.5
		S324.4,10.1,212.6,10.1z M212.6,400.9c-104,0-188.3-84.3-188.3-188.3S108.6,24.2,212.6,24.2s188.3,84.3,188.3,188.3
		S316.6,400.9,212.6,400.9z"/>
	<path class="st0" d="M212.6,420c-55.4,0-107.5-21.6-146.7-60.7C26.7,320.1,5.1,268,5.1,212.6c0-55.4,21.6-107.6,60.8-146.7
		c39.2-39.2,91.3-60.8,146.7-60.8c55.4,0,107.5,21.6,146.7,60.7c39.2,39.2,60.8,91.3,60.8,146.7c0,55.4-21.6,107.6-60.8,146.7
		C320.1,398.4,268,420,212.6,420z M212.6,15.1c-108.9,0-197.5,88.6-197.5,197.5c0,108.8,88.6,197.4,197.5,197.4
		s197.5-88.6,197.5-197.5C410.1,103.7,321.5,15.1,212.6,15.1z M212.6,405.9c-106.6,0-193.3-86.7-193.3-193.3
		C19.3,106,106,19.2,212.6,19.2c106.6,0,193.3,86.7,193.3,193.3C405.9,319.1,319.2,405.9,212.6,405.9z M212.6,29.2
		c-101.1,0-183.3,82.3-183.3,183.4c0,101.1,82.2,183.3,183.3,183.3c101.1,0,183.3-82.3,183.3-183.4
		C395.9,111.4,313.7,29.2,212.6,29.2z"/>
</g>
<g id="Guides">
</g>
<g>
	<path class="st0" d="M330.3,164.3l-23,5.9c-4.2,1.1-6.8,5.4-5.7,9.7c1.1,4.2,5.4,6.8,9.7,5.7l23-5.9c4.2-1.1,6.8-5.4,5.7-9.7
		C338.9,165.8,334.5,163.2,330.3,164.3z"/>
</g>
<g>
	<path class="st0" d="M332.8,215.2l-19.3-11.4c-3.8-2.2-8.6-1-10.9,2.8c-2.2,3.8-1,8.6,2.8,10.9l19.3,11.4c3.8,2.2,8.6,1,10.9-2.8
		C337.9,222.3,336.6,217.4,332.8,215.2z"/>
</g>
<g>
	<path class="st0" d="M309.1,123.1c-3.8-2.2-8.6-1-10.9,2.8l-11.4,19.3c-2.2,3.8-1,8.6,2.8,10.9c3.8,2.2,8.6,1,10.9-2.8l11.4-19.3
		C314.1,130.2,312.9,125.3,309.1,123.1z"/>
</g>
<g>
	<path class="st1" d="M229.8,92c-11.5,3-18.9,14-17.7,25.5l-5.2,8.8c-9,15.3-25.1,27.2-43,31.8L117.8,170c-10,2.6-16.9,11.2-17.8,21
		l-1.3,0.3c-16.9,4.4-27.2,21.7-22.8,38.6c4.4,16.9,21.7,27.2,38.6,22.8l1.3-0.3c4,5.9,10.5,9.8,17.7,10.4l10.2,39.7
		c3.3,12.7,16.3,20.4,29,17.1c12.7-3.3,20.4-16.3,17.1-29l-9.9-38.4l7.7-2c17.9-4.6,37.7-2,53,7.1l8.8,5.2
		c4.5,10.6,16.3,16.7,27.8,13.7c12.7-3.3,20.4-16.3,17.1-29l-35.6-138.2C255.5,96.4,242.5,88.7,229.8,92z M110.6,237.3
		c-8.5,2.2-17.1-2.9-19.3-11.4c-2.2-8.5,2.9-17.1,11.4-19.3L110.6,237.3z M174.5,294.6c1.1,4.2-1.5,8.6-5.7,9.7s-8.6-1.5-9.7-5.7
		l-9.9-38.4l15.4-4L174.5,294.6z M176,236.9l-38.4,9.9c-4.2,1.1-8.6-1.5-9.7-5.7L116.1,195c-1.1-4.2,1.5-8.6,5.7-9.7l38.4-9.9
		L176,236.9z M243.6,240.9c-15.9-7.9-34.3-10.6-52.2-7.6l-16-62.1c17.1-6.1,32-17.4,42-31.9L243.6,240.9z M279,251.2
		c1.1,4.2-1.5,8.6-5.7,9.7l0,0c-4.2,1.1-8.6-1.5-9.7-5.7L228,117c-1.1-4.2,1.5-8.6,5.7-9.7c4.2-1.1,8.6,1.5,9.7,5.7L279,251.2z"/>
</g>
</svg>
