<?xml version="1.0" encoding="utf-8"?>
<!-- Generator: Adobe Illustrator 23.0.0, SVG Export Plug-In . SVG Version: 6.00 Build 0)  -->
<svg version="1.1" id="Layer_1" xmlns="http://www.w3.org/2000/svg" xmlns:xlink="http://www.w3.org/1999/xlink" x="0px" y="0px"
	 viewBox="0 0 425.2 425.2" style="enable-background:new 0 0 425.2 425.2;" xml:space="preserve">
<style type="text/css">
	.st0{fill:#557CF2;}
	.st1{fill:#F37482;stroke:#F37482;stroke-width:8;stroke-miterlimit:10;}
	.st2{fill:#557CF2;stroke:#557CF2;stroke-width:3;stroke-linecap:round;stroke-linejoin:round;stroke-miterlimit:10;}
	.st3{fill:#F37482;stroke:#F37482;stroke-width:3;stroke-miterlimit:10;}
</style>
<g>
	<path class="st0" d="M212.6,10.1c-111.8,0-202.5,90.6-202.5,202.5S100.8,415,212.6,415s202.5-90.6,202.5-202.5
		S324.4,10.1,212.6,10.1z M212.6,400.9c-104,0-188.3-84.3-188.3-188.3S108.6,24.2,212.6,24.2s188.3,84.3,188.3,188.3
		S316.6,400.9,212.6,400.9z"/>
	<path class="st0" d="M212.6,420c-55.4,0-107.5-21.6-146.7-60.7C26.7,320.1,5.1,268,5.1,212.6c0-55.4,21.6-107.6,60.8-146.7
		c39.2-39.2,91.3-60.8,146.7-60.8c55.4,0,107.5,21.6,146.7,60.7c39.2,39.2,60.8,91.3,60.8,146.7c0,55.4-21.6,107.6-60.8,146.7
		C320.1,398.4,268,420,212.6,420z M212.6,15.1c-108.9,0-197.5,88.6-197.5,197.5c0,108.8,88.6,197.4,197.5,197.4
		s197.5-88.6,197.5-197.5C410.1,103.7,321.5,15.1,212.6,15.1z M212.6,405.9c-106.6,0-193.3-86.7-193.3-193.3
		C19.3,106,106,19.2,212.6,19.2c106.6,0,193.3,86.7,193.3,193.3C405.9,319.1,319.2,405.9,212.6,405.9z M212.6,29.2
		c-101.1,0-183.3,82.3-183.3,183.4c0,101.1,82.2,183.3,183.3,183.3c101.1,0,183.3-82.3,183.3-183.4
		C395.9,111.4,313.7,29.2,212.6,29.2z"/>
</g>
<g id="Guides">
</g>
<rect x="-102" y="61.3" class="st0" width="55.4" height="55.4"/>
<rect x="-102" y="132.5" class="st1" width="55.4" height="55.4"/>
<g>
	<path class="st2" d="M117,170.5h15.3v7.7H117V170.5z"/>
	<path class="st3" d="M319.7,155.2c6.3,0,11.5-5.1,11.5-11.5v-38.3c0-6.3-5.1-11.5-11.5-11.5h-53.6c-6.3,0-11.5,5.1-11.5,11.5v38.3
		c0,6.3,5.1,11.5,11.5,11.5h11.5v7.7H270v7.7h19.1v38.3h-15.8c-3.1-3-6.8-5.3-11-6.5c0-0.4,0-0.8,0-1.1c0-16.9-13.7-30.6-30.6-30.6
		c-10.5,0-20.2,5.4-25.8,14.2c-3.9-1.8-8.2-2.7-12.5-2.7c-12.7,0-24.1,8-28.6,19.7c-2.9,0.6-5.6,1.7-8.1,3.2h-28.4v-11.5h15.3
		c6.3,0,11.5-5.1,11.5-11.5v-76.5c0-6.3-5.1-11.5-11.5-11.5h-38.3C99.2,94,94,99.2,94,105.5V182c0,6.3,5.1,11.5,11.5,11.5h15.3v19.1
		h27.9c-1.6,2.3-2.9,4.9-3.7,7.7h-16.5v42.1h-15.3c-6.3,0-11.5,5.1-11.5,11.5v34.4H94v11.5c0,6.3,5.1,11.5,11.5,11.5h61.2
		c6.3,0,11.5-5.1,11.5-11.5v-11.5h-7.7v-34.4c0-6.3-5.1-11.5-11.5-11.5h-23v-34.4h7.7c0,14.8,12,26.8,26.8,26.8h84.2
		c13.5,0,24.6-10,26.5-23h15.6v30.6H270v68.9h61.2v-68.9h-26.8v-38.3h-23.3c-0.4-2.7-1.2-5.3-2.4-7.7h18v-45.9h19.1v-7.7h-7.7v-7.7
		H319.7z M147.6,155.2h-45.9V117h45.9V155.2z M105.5,101.7h38.3c2.1,0,3.8,1.7,3.8,3.8v3.8h-45.9v-3.8
		C101.7,103.4,103.4,101.7,105.5,101.7z M101.7,182v-19.1h45.9V182c0,2.1-1.7,3.8-3.8,3.8h-38.3C103.4,185.8,101.7,184.1,101.7,182z
		 M170.5,319.7c0,2.1-1.7,3.8-3.8,3.8h-61.2c-2.1,0-3.8-1.7-3.8-3.8v-3.8h68.9V319.7z M162.9,273.8v34.4h-53.6v-34.4
		c0-2.1,1.7-3.8,3.8-3.8H159C161.2,270,162.9,271.7,162.9,273.8z M277.6,323.5v-23h45.9v23H277.6z M323.5,292.9h-45.9v-23h45.9
		V292.9z M254.7,247h-84.2c-10.5,0-19.1-8.6-19.1-19.1c0-9.7,7.2-17.8,16.8-19l2.5-0.3l0.7-2.4c2.8-9.7,11.9-16.5,22-16.5
		c4.2,0,8.4,1.2,12,3.4l3.7,2.3l1.8-3.9c3.8-8.1,11.9-13.3,20.8-13.3c12.7,0,23,10.3,23,23c0,1.1-0.1,2.2-0.3,3.5l-0.6,3.8l3.8,0.6
		c9.2,1.4,16.2,9.5,16.2,18.9C273.8,238.4,265.2,247,254.7,247z M266.2,101.7h53.6c2.1,0,3.8,1.7,3.8,3.8v26.8h-61.2v-26.8
		C262.3,103.4,264,101.7,266.2,101.7z M262.3,143.7v-3.8h61.2v3.8c0,2.1-1.7,3.8-3.8,3.8h-53.6C264,147.6,262.3,145.9,262.3,143.7z
		 M300.6,162.9h-15.3v-7.7h15.3V162.9z"/>
	<path class="st2" d="M285.3,277.6h7.7v7.7h-7.7V277.6z"/>
	<path class="st2" d="M308.2,308.2h7.7v7.7h-7.7V308.2z"/>
	<path class="st2" d="M300.6,277.6h15.3v7.7h-15.3V277.6z"/>
	<path class="st2" d="M285.3,308.2h15.3v7.7h-15.3V308.2z"/>
</g>
</svg>
